<?xml version="1.0" encoding="UTF-8"?>
<svg id="Layer_1" xmlns="http://www.w3.org/2000/svg" version="1.1" viewBox="0 0 360 360">
  <!-- Generator: Adobe Illustrator 29.8.10, SVG Export Plug-In . SVG Version: 2.1.1 Build 2)  -->
  <defs>
    <style>
      .st0 {
        fill: #2ba48c;
      }

      .st1 {
        fill: #fff100;
      }
    </style>
  </defs>
  <path class="st1" d="M333.05,143.71c-7.63-48-41.95-92.36-90.04-104.68-23.82-6.1-49.83-2.71-73.01,4.44-38.87,11.98-76.14,33.49-104.01,63.29-4.34,4.64-8.9,9.45-12.56,14.66-10.54,15-18.62,31.74-23.51,49.42-13.78,49.82,2.37,105.68,41.41,139.64,37.84,32.91,92.36,37.36,138.51,21.5,48.6-16.71,91.5-53.08,111.89-100.75,11.86-27.73,15.97-58.23,11.32-87.52Z"/>
  <g>
    <g>
      <path class="st0" d="M85.98,19.16c-.82,8.8-.89,17.64-1.3,26.47-.2,4.4-.09,8.83-.12,13.23s-.07,8.82-.1,13.23c-.14,17.73-.11,35.46-.13,53.18-.02,17.64-.05,35.29-.07,52.93-.02,17.64-.07,35.29-.07,52.93,0,8.82,0,17.64,0,26.47,0,4.41,0,8.82.02,13.23.02,4.65.48,9.12,1.52,13.66.47,2.08.66,4.2.92,6.32.24,1.95,2.81,1.96,3.05,0,.27-2.2.48-4.39.97-6.55s.91-4.41,1.14-6.68c.44-4.4.35-8.82.35-13.23,0-8.82,0-17.64,0-26.47,0-17.73-.03-35.45-.06-53.18-.02-17.64-.05-35.29-.07-52.93s.05-35.29-.09-52.93c-.07-8.82-.14-17.64-.2-26.47s-.49-17.81-.83-26.72c-.08-2.17-.35-4.33-.55-6.49-.26-2.81-4.11-2.82-4.38,0h0Z"/>
      <path class="st0" d="M87.84,22.92c.88.27,1.74.62,2.66.71.83.08,1.66.16,2.5.24,1.83.19,3.65.22,5.49.25,3.49.06,6.99.12,10.48.18,6.82.11,13.64.15,20.47.15,13.81,0,27.62.01,41.43.04,27.71.05,55.41.02,83.12-.1,7.74-.03,15.48-.06,23.21-.1,3.82-.02,7.67.1,11.48-.11l5.99-.33c2.13-.12,4-.8,6.01-1.47,1.85-.61,1.85-3.15,0-3.77-1.64-.54-3.29-1.25-5.01-1.41-1.82-.18-3.67-.2-5.49-.3-3.49-.19-6.99-.17-10.48-.18-6.82-.03-13.64-.06-20.47-.08-13.81-.06-27.62-.11-41.43-.17-27.7-.11-55.41.09-83.12.09-7.74,0-15.48-.02-23.21.11l-11.48.19c-1.99.03-4.01-.03-5.99.17-1,.1-2,.21-3,.3-1.12.1-2.09.42-3.16.75-2.37.73-2.38,4.09,0,4.82h0Z"/>
      <path class="st0" d="M296.51,21.19c-1.27,17.46-1.08,34.99-1.02,52.49s.12,35.16.11,52.74-.02,34.99-.03,52.49c-.01,17.5-.1,35-.02,52.49l.12,26.5c.04,8.74-.19,17.52.38,26.25.15,2.3.8,4.45,1.56,6.61s3.67,2.19,4.44,0,1.41-4.31,1.56-6.61.28-4.5.29-6.75c.02-4.33.04-8.67.06-13,.04-8.75.08-17.5.12-26.25.08-17.58.03-35.16.02-52.74-.01-17.5-.02-34.99-.03-52.49s.02-34.99.08-52.49c.03-8.83.05-17.66.03-26.5-.01-4.33-.03-8.67-.04-13s-.49-8.84-.65-13.25c-.08-2.17-.18-4.33-.33-6.5-.13-1.79-1.43-3.32-3.32-3.32s-3.19,1.52-3.32,3.32h0Z"/>
      <path class="st0" d="M86.61,293.49c3.39.91,7.04,1.23,10.55,1.4s7,.42,10.5.45l20.5.16c13.83.11,27.67.09,41.5.11,27.75.03,55.5-.07,83.25-.2,7.75-.04,15.5-.04,23.25-.04,3.83,0,7.67,0,11.5,0,2,0,4.01.06,6-.05,2.15-.12,4.1-.82,6.19-1.33,2.46-.61,2.46-4.37,0-4.97-1.72-.42-3.43-1.11-5.19-1.28s-3.67-.1-5.5-.1c-3.5,0-7,0-10.5,0-6.83,0-13.67.02-20.5-.01-13.83-.07-27.67-.13-41.5-.2-27.75-.13-55.5-.18-83.25.04-7.75.06-15.5.12-23.25.18-3.84.03-7.66.21-11.5.39s-8.16.43-12.05,1.47c-1.97.53-1.97,3.47,0,3.99h0Z"/>
      <path class="st0" d="M75.07,38.33c.99.82,1.86,1.55,3.13,1.94,1.18.36,2.55.45,3.77.63,2.6.38,5.27.4,7.88.55,2.47.14,4.93.21,7.4.26,1.52.03,3.05-.03,4.52-.46s2.38-1.34,3.33-2.44c.76-.88.76-1.99,0-2.87-.95-1.1-1.86-2.01-3.33-2.44s-3-.49-4.52-.46c-2.47.05-4.93.12-7.4.26-2.62.15-5.29.17-7.88.55-1.22.18-2.59.27-3.77.63-1.27.39-2.14,1.12-3.13,1.94-.53.44-.53,1.49,0,1.93h0Z"/>
      <path class="st0" d="M76.26,60.45c2.56.4,5.1.85,7.69.98,2.3.12,4.6.28,6.9.31l6.9.08c1.36.02,2.7,0,4-.45.86-.3,1.64-.78,2.27-1.46.41-.41.69-.89.85-1.45-.37.62-.36.74.02.34.67-.58.67-1.85,0-2.43-.38-.4-.38-.28-.02.34-.16-.56-.44-1.04-.85-1.45-.5-.54-1.12-.98-1.8-1.26-1.45-.61-2.92-.67-4.47-.65l-6.9.08c-2.3.03-4.6.19-6.9.31-2.59.13-5.13.58-7.69.98-2.83.44-2.84,5.29,0,5.73h0Z"/>
      <path class="st0" d="M74.79,82.29c2.29,1.33,5.08,1.47,7.65,1.76,2.28.25,4.61.19,6.9.26s4.6.04,6.9-.02c1.15-.03,2.3-.03,3.45-.15,1.25-.14,2.31-.29,3.26-1.2.27-.32.53-.65.78-.98.18-.28.16-.29-.05-.03,1.3-.93,1.3-2.57,0-3.51.21.26.23.25.05-.03-.25-.34-.51-.67-.78-.98-.89-.86-1.83-1.03-3.01-1.18s-2.46-.15-3.7-.18c-2.31-.05-4.6-.08-6.9-.02s-4.62.02-6.9.26c-2.57.27-5.38.43-7.65,1.76-1.6.93-1.6,3.32,0,4.25h0Z"/>
      <path class="st0" d="M77.72,103.87c3.79.28,7.59.66,11.38.74l5.58.11c2.47.05,5.25.3,7.05-1.78,1.34-1.55,1.35-3.53,0-5.09-1.74-2.01-4.44-1.82-6.84-1.78l-5.8.11c-3.8.07-7.6.46-11.38.74-1.81.13-3.56,1.5-3.48,3.48s1.53,3.33,3.48,3.48h0Z"/>
      <path class="st0" d="M76.34,123.5c1.16,2.34,4.33,2.52,6.64,2.63l5.41.27c1.8.09,3.61.19,5.41.22,2.09.04,4.54.42,6.5-.38,1.63-.67,3.09-2.01,3-3.95s-1.25-3.23-3-3.95c-2.05-.84-4.73-.41-6.92-.37-1.94.04-3.89.16-5.83.25-2.13.11-4.31.09-6.42.41-1.06.16-2.22.27-3.18.76-1.49.77-2.39,2.54-1.61,4.1h0Z"/>
      <path class="st0" d="M77.56,145.53c1.82.73,3.61.84,5.54.97,1.7.12,3.41.28,5.12.35,3.41.14,6.83.13,10.24.19,2.37.04,4.64-2.11,4.53-4.53s-1.99-4.58-4.53-4.53c-3.41.06-6.84.04-10.24.19-1.64.07-3.28.23-4.92.34-2,.14-3.87.23-5.75.98-2.95,1.18-2.95,4.84,0,6.03h0Z"/>
      <path class="st0" d="M79.07,168.55l1.51.15-2.82-2.15c.43,1.2,1.14,1.9,2.26,2.43s2.32.63,3.57.73c1.57.13,3.13.27,4.71.29l4.71.07c1.77.03,3.97.36,5.63-.3s3.14-2.05,3.06-4.01-1.27-3.3-3.06-4.01c-1.67-.67-3.85-.33-5.63-.3l-4.71.07c-1.58.02-3.14.17-4.71.29-1.19.1-2.33.17-3.43.66-1.17.53-1.96,1.25-2.41,2.5l2.82-2.15-1.51.15c-1.49.15-2.77,1.17-2.77,2.77s1.28,2.62,2.77,2.77h0Z"/>
      <path class="st0" d="M78.2,189.73c1.78.44,3.56.5,5.38.58,1.55.07,3.09.13,4.63.14l4.63.02c2.32.01,4.72-.43,6.04-2.55.58-.92.58-2.24,0-3.16-1.32-2.11-3.72-2.57-6.04-2.55l-4.63.02c-1.55,0-3.09.07-4.63.14-1.83.08-3.6.14-5.38.58-3.35.83-3.35,5.95,0,6.78h0Z"/>
      <path class="st0" d="M76.71,212.72c3.99.39,7.95.68,11.96.82,1.96.07,3.91.15,5.87.21,2.14.07,4.64.34,6.72-.21,3.9-1.03,3.9-6.87,0-7.9-2.08-.55-4.57-.28-6.72-.21-1.96.06-3.91.14-5.87.21-4.01.14-7.97.44-11.96.82s-4.02,5.86,0,6.25h0Z"/>
      <path class="st0" d="M76.12,232.76c-.35-.49-.23-.35.34.41.41.41.9.7,1.47.85.46.13.97.16,1.44.24,1.09.17,2.11.25,3.21.27l5.65.15,5.27.14c1.21.03,2.52.19,3.7-.15,1.77-.5,3.21-1.92,3.21-3.85s-1.43-3.38-3.21-3.85c-1.19-.32-2.48-.18-3.7-.15l-5.27.14-5.65.15c-1.09.03-2.12.1-3.21.27-.47.08-.98.11-1.44.24-.56.16-1.05.44-1.47.85-.57.76-.69.9-.34.41-1.03,1.14-1.03,2.72,0,3.87h0Z"/>
      <path class="st0" d="M81.33,253.21l.22-.37-2.52,1.94c.49-.08.55-.09.17-.05h.64c.5,0,1,0,1.5,0h2.58c1.86,0,3.72,0,5.58,0s3.72.01,5.58,0c2.39-.01,5.01-.41,6.43-2.53.55-.83.55-2.17,0-3-1.42-2.11-4.04-2.51-6.43-2.53-1.86,0-3.72,0-5.58,0h-5.58c-.86,0-1.72,0-2.58,0h-1.29c-.29,0-.57,0-.86,0,.38.05.32.03-.17-.05l2.52,1.94-.22-.37c-1.12-1.89-3.48-2.87-5.6-2.28s-3.74,2.62-3.64,4.78c.09,2,1.19,3.75,3.05,4.53,2.26.95,4.93.11,6.19-2.03h0Z"/>
      <path class="st0" d="M78.71,276.27c3.3.7,6.81.52,10.17.62,1.8.05,3.59-.3,5.38-.54.71-.1,1.43-.16,2.12-.37,1.62-.49,2.68-1.54,3.12-3.17l-.51.88.18-.19c.65-.72.65-1.71,0-2.43l-.18-.19.51.88c-.43-1.6-1.39-2.54-2.95-3.12-.73-.27-1.52-.33-2.29-.43-1.79-.24-3.58-.59-5.38-.54-3.36.1-6.87-.07-10.17.62-3.95.83-3.95,7.15,0,7.98h0Z"/>
    </g>
    <g>
      <path class="st0" d="M171.43,106.47c-5.7-.4-11.88-.36-16.72,3.17-5.49,4-7.25,10.27-8.05,16.7-.87,7.03-1.1,14.04-1.24,21.11s-.29,14.23-.24,21.35c.03,3.97.09,7.94.24,11.91.08,2.07.18,4.13.3,6.2.13,2.26.15,4.6.68,6.81.49,2.02,2.6,3.26,4.59,2.99,2.16-.29,3.45-2,3.62-4.11.14-1.64-.1-3.31-.2-4.95-.12-1.82-.22-3.63-.31-5.45-.16-3.31-.31-6.61-.42-9.92-.23-6.79-.27-13.57-.49-20.36-.21-6.56-.38-13.15-.01-19.71.16-2.99.45-5.95,1.18-8.87.61-2.41,1.45-4.56,2.9-6.11.18-.19.36-.37.54-.55.18-.17.37-.34.56-.5-.27.19-.23.16.12-.09.5-.35,1.02-.68,1.55-.99,1.46-.85,1.92-.99,3.6-1.46,2.8-.78,5.64-1.48,8.49-2.04,1.26-.25,2.05-1.68,1.87-2.87-.2-1.34-1.24-2.18-2.57-2.27h0Z"/>
      <path class="st0" d="M170.51,108.88c-1.6,2.48-2.29,5.65-2.8,8.53-.55,3.09-.96,6.22-1.28,9.34-.17,1.65,1.58,3.23,3.16,3.16,1.74-.08,3.12-1.39,3.16-3.16.06-2.93.25-5.85.46-8.77s.55-5.88.03-8.75c-.25-1.33-2.08-1.34-2.71-.35h0Z"/>
      <path class="st0" d="M170.58,128.8c1.81-.66,2.47-3.16,3.31-4.76.9-1.73,1.96-3.36,3.05-4.98,2.06-3.07,4.63-5.86,7.86-7.71s6.77-2.59,10.31-1.46c2.96.95,5.41,3.13,6.32,6.13,1.25,4.1.25,8.71-.51,12.81-.28,1.51.42,3.08,1.99,3.51,1.46.4,3.14-.49,3.51-1.99,1.17-4.78,2.13-9.54.82-14.41-1.19-4.42-4.2-7.99-8.43-9.76-8.6-3.6-18.14,1.03-23.71,7.74-1.67,2.01-3.09,4.16-4.27,6.5-.62,1.23-1.24,2.51-1.71,3.82s-.98,2.65-.26,3.86c.32.54,1.09.93,1.71.7h0Z"/>
      <path class="st0" d="M205.94,127.14c1.26-1.77,2.5-3.49,3.64-5.34s2.26-3.52,3.61-5.09c2.44-2.82,5.57-5.19,9.25-6.08,1.7-.41,3.7-.52,5.37.07,1.53.55,2.88,1.76,3.98,2.93,2.65,2.84,4.05,6.78,4.57,10.55.26,1.88,2.67,2.91,4.32,2.46,1.92-.53,2.85-2.46,2.46-4.32-.84-3.93-2.34-7.78-5.11-10.75s-5.91-4.35-9.59-5.34c-7.48-1.99-14.88,2.18-19.37,7.96-1.35,1.73-2.46,3.56-3.44,5.52-1.03,2.06-1.61,4.13-2.17,6.36-.39,1.57,1.62,2.28,2.5,1.05h0Z"/>
      <path class="st0" d="M238.42,121.81c-1.9,1.91-1.72,5.45-1.67,7.99.05,2.32.28,4.64.38,6.95.22,4.72.43,9.43.5,14.15s-.15,9.42-.45,14.16c-.15,2.32-.2,4.63-.26,6.95-.07,2.57-.38,5.56.25,8.06,1,4.01,6.98,3.92,8.03,0,.66-2.47.39-5.51.33-8.06-.05-2.32-.1-4.64-.26-6.95-.32-4.73-.62-9.42-.68-14.16s-.03-9.43-.04-14.15c0-2.31.08-4.64,0-6.95-.04-1.16-.22-2.32-.35-3.48-.19-1.68-.35-3.33-1.7-4.52-1.16-1.03-2.92-1.16-4.07,0h0Z"/>
      <path class="st0" d="M150.66,196.76c1.73.6,3.94.22,5.76.21s3.64.02,5.46,0c3.57-.03,7.13.07,10.7.15,1.78.04,3.49-1.6,3.41-3.41-.09-2.01-1.5-3.2-3.41-3.41-3.55-.39-7.13-.61-10.7-.78-1.75-.08-3.5-.08-5.24-.07s-4.27-.32-5.98.37c-1.43.58-2.71,1.77-2.63,3.46s1.08,2.92,2.63,3.46h0Z"/>
      <path class="st0" d="M175.04,191.99c.27-.89.6-1.78.72-2.71s.09-1.98.13-2.95c.09-1.97.19-3.93.23-5.9.08-3.94.15-7.87.43-11.8.56-7.85.84-15.73,1.71-23.55.1-.88.19-1.75.31-2.63.09-.69-.17.86.05-.31.07-.37.13-.74.21-1.1.16-.72.34-1.44.55-2.15.26-.87-.3.3.21-.45.12-.21.24-.41.38-.6-.17.25-.11.21.16-.1-.44.23.42-.01.11-.05-.16-.02-.3.05-.48,0-.22-.07-.32-.28-.49-.36l-.05-.19c.08.21.14.41.19.63,0,0,.2,1.06.11.48.06.43.08.87.12,1.31.09.98.18,1.97.26,2.95.65,7.88.52,15.75.1,23.64-.24,4.43-.51,8.86-.73,13.29-.11,2.13-.24,4.26-.38,6.39-.16,2.27-.55,4.61-.31,6.88.17,1.62,1.11,3.02,2.85,3.22,1.62.19,3.13-.75,3.6-2.35.64-2.17.67-4.51.85-6.77s.32-4.42.44-6.64c.25-4.28.33-8.52.25-12.8-.16-8.71-.56-17.4-.74-26.11-.08-3.74,0-8.75-4.46-10.04-4.54-1.31-8.23,2.82-9.47,6.72-.57,1.79-.61,3.79-.74,5.65-.15,2.12-.25,4.24-.35,6.36-.2,4.31-.44,8.69-.21,13,.26,4.83.58,9.66.85,14.5.14,2.46.29,4.92.53,7.37.11,1.15.22,2.29.33,3.44.13,1.32.5,2.44.94,3.69.3.85,1.53.93,1.81,0h0Z"/>
      <path class="st0" d="M209.25,192.74c.97-3.94,1.11-7.9,1.26-11.94.14-3.81.15-7.62.27-11.43s.48-7.3.61-10.95c.12-3.35.37-6.93.84-9.97.53-3.37,1.33-6.71,2.55-9.9-.05.13.41-1.21.29-.74l.15-.3c-.35.35-.79.53-1.33.54l-.64-.15c-.56-.88-.72-1-.49-.34v-.02c-.09-.14-.09-.02-.02.38.05,2-.11,4.03-.1,6.03.04,7.72-1.08,15.4-.92,23.12.18,8.82,1.05,17.56,1.87,26.33.17,1.79,1.41,3.32,3.32,3.32,1.74,0,3.4-1.52,3.32-3.32-.37-8.52-.27-17.06-.45-25.58-.09-4.24-.39-8.45-.63-12.68-.12-2.15-.23-4.31-.33-6.47s.06-4.31.18-6.46.39-4.32-.14-6.33c-.56-2.12-2.32-3.96-4.54-4.27-2.44-.34-4.29,1.21-5.29,3.3-.89,1.87-1.67,3.81-2.31,5.79-2.45,7.48-3.17,15.51-3.09,23.34.05,4.67.1,9.35.2,14.02.11,4.93.3,9.93,1.72,14.67.53,1.75,3.23,1.89,3.69,0h0Z"/>
      <path class="st0" d="M238.87,178.31c-.64,2.19-1.37,3.84-2.63,5.78-.49.75-.99,1.34-1.88,2.18-.95.9-1.2,1.08-2.44,1.79-.49.28-.99.54-1.51.77-.59.27-.53.25-1.37.54-1.23.42-2.49.71-3.78.95s.36-.03-.38.06c-.34.04-.68.08-1.03.11-.69.06-1.38.1-2.07.12-1.62.05-3.16-.09-4.75.31-1.23.32-2.4,1.41-2.68,2.68-.17.79-.12,1.25,0,2.04.2,1.33,1.51,2.28,2.68,2.68,1.71.58,3.59.41,5.37.26s3.45-.37,5.13-.75c3.08-.68,6.16-1.89,8.7-3.78,4.74-3.53,9-9.59,6.99-15.73-.69-2.1-3.73-2.21-4.37,0h0Z"/>
      <path class="st0" d="M182.17,196.14c3.96.22,7.87.21,11.82.04,1.95-.08,3.84-.13,5.79,0,1.72.11,4.14.08,5.34.45,3.01.93,5.85-1.83,5.45-4.79-.43-3.19-3.75-4.54-6.49-3.19-.41.25-.5.28-.29.09l-.47.09c-.46.04-.94.18-1.4.27-.93.17-1.87.34-2.8.51-1.8.32-3.55.38-5.38.41-3.86.07-7.72.11-11.58.19s-3.8,5.73,0,5.94h0Z"/>
    </g>
  </g>
</svg>